<?xml version="1.0"?><svg width="1000" height="1000" xmlns="http://www.w3.org/2000/svg" xmlns:xlink="http://www.w3.org/1999/xlink">
 <title>orange play</title>
 <defs>
  <linearGradient id="linearGradient3624">
   <stop stop-color="#ffffff" offset="0" id="stop3626"/>
   <stop stop-color="#f1f1f1" offset="1" id="stop3628"/>
  </linearGradient>
  <linearGradient y2="0.527878" x2="1.027235" y1="0.470189" x1="1.027236" id="linearGradient3622" xlink:href="#linearGradient3624"/>
 </defs>
 <metadata id="metadata7">image/svg+xml</metadata>
 <g>
  <title>Layer 1</title>
  <g id="layer1">
   <g transform="matrix(22.7091, 0, 0, 22.7091, -10368.4, -16813.6)" id="g3644">
    <path fill="#e87409" stroke="#f97e02" stroke-width="0.99962" stroke-miterlimit="4" id="path3632" d="m499.952362,762.408386c0,11.797119 -9.563477,21.360596 -21.360596,21.360596c-11.79715,0 -21.360626,-9.563477 -21.360626,-21.360596c0,-11.797119 9.563477,-21.360596 21.360626,-21.360596c11.797119,0 21.360596,9.563477 21.360596,21.360596z"/>
    <path fill="#ffffff" fill-opacity="0.517857" d="m457.922119,761.961975c-0.032196,4.071472 13.676147,-3.283386 19.821411,-3.214294c6.047668,0.067993 21.517883,7.9552 21.517883,2.5c0,-7.536011 -6.851379,-19.384827 -20.446442,-19.464294c-13.595306,-0.079407 -20.822144,11.232056 -20.892853,20.178589z" id="path3642"/>
   </g>
   <path fill="url(#linearGradient3622)" fill-rule="evenodd" d="m360.005249,714.096069l0,-428.191223l370.82489,214.096588l-370.82489,214.094635z" id="path2842"/>
  </g>
 </g>
</svg>